<svg width="208" height="41" viewBox="0 0 208 41" fill="none" xmlns="http://www.w3.org/2000/svg">
<g clip-path="url(#clip0_1_10245)">
<mask id="mask0_1_10245" style="mask-type:luminance" maskUnits="userSpaceOnUse" x="0" y="0" width="208" height="41">
<path d="M208 0H0V41H208V0Z" fill="white"/>
</mask>
<g mask="url(#mask0_1_10245)">
<path d="M52.3359 9.41889V12.8852H57.9462V26.7501H61.832V12.8852H67.4179V9.41889H52.3359ZM73.2535 21.1453V23.1118H72.282V21.1453L69.6104 14.3356H65.2146L70.8248 26.0127V28.348L66.6232 28.2989V31.7406L72.6464 31.9127C73.982 31.9618 74.735 31.2243 74.735 29.8476V26.0127L80.3452 14.3356H75.925L73.2535 21.1453ZM81.5493 31.421H85.4595V25.9881L84.7065 23.7755H85.7022C86.3337 25.4227 87.4752 26.996 90.5354 26.996C94.0811 26.996 95.8297 24.0707 95.8297 20.5551C95.8297 17.0397 94.0811 14.0898 90.5354 14.0898C87.4752 14.0898 86.3337 15.6631 85.7022 17.3102H84.7065L85.4595 15.0978V14.3356H81.5493V31.421ZM85.4595 20.5551C85.4595 18.441 86.6008 17.5561 88.6896 17.5561C90.7782 17.5561 91.9439 18.441 91.9439 20.5551C91.9439 22.6693 90.7782 23.5298 88.6896 23.5298C86.6008 23.5298 85.4595 22.6693 85.4595 20.5551ZM97.0491 20.3831C97.0491 23.8985 99.2105 26.996 103.922 26.996C108.172 26.996 110.212 24.1689 110.431 22.3743H106.545C106.302 23.3085 105.282 23.8001 103.922 23.8001C101.712 23.8001 100.716 22.7922 100.716 21.3664H109.993V20.1372C109.993 16.376 107.322 14.0898 103.509 14.0898C99.6963 14.0898 97.0491 16.4498 97.0491 20.3831ZM100.716 19.1539C100.716 18.2197 101.348 17.3102 103.509 17.3102C105.671 17.3102 106.351 18.2197 106.351 19.1539H100.716ZM134.721 21.9809C134.721 18.3673 129.888 16.9905 126.731 15.909C123.986 14.9748 123.598 14.6797 123.598 13.8931C123.598 13.0326 124.667 12.6394 126.415 12.6394C128.528 12.6394 130.131 13.2047 130.131 15.3189H134.017C134.017 11.8772 131.662 9.17307 126.415 9.17307C121.995 9.17307 119.688 10.7956 119.688 13.7456C119.688 17.1381 122.627 18.1214 126.246 19.3506C128.747 20.211 130.836 20.7764 130.836 22.0301C130.836 22.9642 130.01 23.5298 127.508 23.5298C124.108 23.5298 122.822 22.6939 122.822 20.0634H118.911C118.911 24.4393 121.218 26.996 127.387 26.996C132.657 26.996 134.721 24.9556 134.721 21.9809ZM142.28 17.8018H146.31V14.3356H142.28V10.771L138.369 12.0002V14.3356H135.455V17.8018H138.369V24.9065C138.369 26.2585 139.097 27.0452 140.433 26.996L146.796 26.7501V23.2839L142.28 23.5298V17.8018ZM154.909 23.5298C153.04 23.5298 152.407 22.6693 152.407 20.4077V14.3356H148.497V21.0469C148.497 24.8819 150.393 26.996 153.526 26.996C156.149 26.996 157.679 25.2505 158.164 23.038H159.135L158.407 25.2505V26.7501H162.317V14.3356H158.407V18.9327C158.407 22.4235 157.022 23.5298 154.909 23.5298ZM178.047 8.6814H174.161V15.0978L174.89 17.3102H173.918C173.287 15.6631 172.121 14.0898 169.085 14.0898C165.539 14.0898 163.766 17.0151 163.766 20.5305C163.766 24.0461 165.539 26.996 169.085 26.996C172.121 26.996 173.287 25.4227 173.918 23.7755H174.89L174.161 25.9881V26.7501H178.047V8.6814ZM174.161 20.5305C174.161 22.6203 172.995 23.5298 170.907 23.5298C168.818 23.5298 167.677 22.6203 167.677 20.5305C167.677 18.441 168.818 17.5561 170.907 17.5561C172.995 17.5561 174.161 18.441 174.161 20.5305ZM185.063 13.1064C186.497 13.1064 187.396 12.4181 187.396 11.1398C187.396 9.88598 186.497 9.17307 185.063 9.17307C183.631 9.17307 182.781 9.88598 182.781 11.1398C182.781 12.4181 183.631 13.1064 185.063 13.1064ZM190.746 26.7501V23.2839H187.275V16.1547C187.275 14.7781 186.521 14.016 185.137 14.0898L180.522 14.3356V17.8018L183.51 17.6543V23.2839H180.036V26.7501H190.746ZM191.468 20.5305C191.468 24.8819 194.529 26.996 198.391 26.996C202.227 26.996 205.287 24.8819 205.287 20.5305C205.287 16.2039 202.227 14.0898 198.391 14.0898C194.529 14.0898 191.468 16.2039 191.468 20.5305ZM195.378 20.5305C195.378 18.4656 196.544 17.5561 198.391 17.5561C200.211 17.5561 201.402 18.4656 201.402 20.5305C201.402 22.6203 200.211 23.5298 198.391 23.5298C196.544 23.5298 195.378 22.6203 195.378 20.5305Z" fill="#282828"/>
<g filter="url(#filter0_d_1_10245)">
<path d="M0.206407 9.1342C0.392732 4.46519 3.97949 0.835707 8.59203 0.64433C11.4593 0.525371 15.0793 0.432831 19.4037 0.432831C23.7685 0.432831 27.4157 0.527101 30.2954 0.64766C34.8714 0.839233 38.4257 4.42169 38.6076 9.05388C38.7207 11.9345 38.8076 15.6317 38.8076 20.1922C38.8076 24.8251 38.7179 28.5672 38.6021 31.4672C38.4198 36.037 34.944 39.5632 30.4294 39.7474C27.6013 39.8627 23.949 39.9514 19.4037 39.9514C14.9015 39.9514 11.2752 39.8644 8.45848 39.7506C3.90743 39.5667 0.398561 35.993 0.211893 31.3865C0.0930593 28.454 0 24.7139 0 20.1922C0 15.74 0.0902072 12.046 0.206407 9.1342Z" fill="#282828"/>
</g>
<g filter="url(#filter1_ddi_1_10245)">
<path fill-rule="evenodd" clip-rule="evenodd" d="M18.2771 18.8973C16.0691 19.5108 14.4386 21.5688 14.4386 24.025C14.4386 26.9677 16.7789 29.3389 19.6486 29.3389C22.0497 29.3389 24.0801 27.6791 24.6794 25.4135H19.6493L19.6486 24.025H18.2771V18.8973ZM19.6486 24.025H18.2771C18.2771 24.7919 18.8919 25.4135 19.6493 25.4135L19.6486 24.025ZM21.0204 22.6367V17.3226C21.0204 16.5558 20.4062 15.9343 19.6486 15.9343C15.2482 15.9343 11.6953 19.5645 11.6953 24.025C11.6953 28.4857 15.2482 32.1157 19.6486 32.1157C24.049 32.1157 27.6022 28.4857 27.6022 24.025C27.6022 23.2582 26.9879 22.6367 26.2305 22.6367H21.0204Z" fill="white"/>
<path fill-rule="evenodd" clip-rule="evenodd" d="M10.2812 10.6481C10.2812 9.88134 10.8954 9.25974 11.6528 9.25974H27.2896C28.0472 9.25974 28.6613 9.88134 28.6613 10.6481V16.9336C28.6613 17.7003 28.0472 18.322 27.2896 18.322H11.6528C10.8954 18.322 10.2812 17.7003 10.2812 16.9336V10.6481ZM13.0245 12.0365V15.5451H25.9181V12.0365H13.0245Z" fill="white"/>
</g>
</g>
</g>
<defs>
<filter id="filter0_d_1_10245" x="0" y="0.432831" width="39.8932" height="40.607" filterUnits="userSpaceOnUse" color-interpolation-filters="sRGB">
<feFlood flood-opacity="0" result="BackgroundImageFix"/>
<feColorMatrix in="SourceAlpha" type="matrix" values="0 0 0 0 0 0 0 0 0 0 0 0 0 0 0 0 0 0 127 0" result="hardAlpha"/>
<feOffset dx="0.544239" dy="0.544239"/>
<feGaussianBlur stdDeviation="0.27212"/>
<feComposite in2="hardAlpha" operator="out"/>
<feColorMatrix type="matrix" values="0 0 0 0 1 0 0 0 0 1 0 0 0 0 1 0 0 0 0.2 0"/>
<feBlend mode="normal" in2="BackgroundImageFix" result="effect1_dropShadow_1_10245"/>
<feBlend mode="normal" in="SourceGraphic" in2="effect1_dropShadow_1_10245" result="shape"/>
</filter>
<filter id="filter1_ddi_1_10245" x="5.5645" y="7.11093" width="27.8163" height="32.2895" filterUnits="userSpaceOnUse" color-interpolation-filters="sRGB">
<feFlood flood-opacity="0" result="BackgroundImageFix"/>
<feColorMatrix in="SourceAlpha" type="matrix" values="0 0 0 0 0 0 0 0 0 0 0 0 0 0 0 0 0 0 127 0" result="hardAlpha"/>
<feOffset dy="2.56794"/>
<feGaussianBlur stdDeviation="2.35837"/>
<feColorMatrix type="matrix" values="0 0 0 0 0.0846528 0 0 0 0 0.105365 0 0 0 0 0.191667 0 0 0 0.6 0"/>
<feBlend mode="normal" in2="BackgroundImageFix" result="effect1_dropShadow_1_10245"/>
<feColorMatrix in="SourceAlpha" type="matrix" values="0 0 0 0 0 0 0 0 0 0 0 0 0 0 0 0 0 0 127 0" result="hardAlpha"/>
<feOffset dy="-0.641983"/>
<feGaussianBlur stdDeviation="0.427989"/>
<feComposite in2="hardAlpha" operator="out"/>
<feColorMatrix type="matrix" values="0 0 0 0 1 0 0 0 0 1 0 0 0 0 1 0 0 0 0.25 0"/>
<feBlend mode="normal" in2="effect1_dropShadow_1_10245" result="effect2_dropShadow_1_10245"/>
<feBlend mode="normal" in="SourceGraphic" in2="effect2_dropShadow_1_10245" result="shape"/>
<feColorMatrix in="SourceAlpha" type="matrix" values="0 0 0 0 0 0 0 0 0 0 0 0 0 0 0 0 0 0 127 0" result="hardAlpha"/>
<feOffset dy="-1.71195"/>
<feGaussianBlur stdDeviation="1.06997"/>
<feComposite in2="hardAlpha" operator="arithmetic" k2="-1" k3="1"/>
<feColorMatrix type="matrix" values="0 0 0 0 0.141176 0 0 0 0 0.164706 0 0 0 0 0.262745 0 0 0 0.45 0"/>
<feBlend mode="normal" in2="shape" result="effect3_innerShadow_1_10245"/>
</filter>
<clipPath id="clip0_1_10245">
<rect width="208" height="41" fill="white"/>
</clipPath>
</defs>
</svg>
