<svg width="96" height="40" viewBox="0 0 96 40" fill="none" xmlns="http://www.w3.org/2000/svg">
<g clip-path="url(#clip0_1_10504)">
<path d="M52.4925 30.0524C51.002 30.0524 49.8428 29.6455 49.0162 28.8332C48.2064 28.0041 47.8007 26.8412 47.8007 25.3462V19.4939H45.5156V16.6409H45.7587C46.4075 16.6409 46.9089 16.4702 47.2659 16.1288C47.623 15.7875 47.8007 15.2921 47.8007 14.6414V13.2026H50.9853V16.6409H54.024V19.4939H50.9853V25.1755C50.9853 25.8583 51.1631 26.378 51.5201 26.7361C51.8772 27.0774 52.4439 27.2482 53.2218 27.2482C53.4816 27.2482 53.7642 27.2238 54.0726 27.175V29.9305C53.6031 30.0112 53.0759 30.0524 52.4925 30.0524Z" fill="#272522"/>
<path d="M61.7425 30.1991C60.4784 30.1991 59.3039 29.8989 58.2176 29.2969C57.148 28.6949 56.3047 27.8658 55.6894 26.8096C55.074 25.7534 54.7656 24.5739 54.7656 23.2739C54.7656 21.9739 55.074 20.779 55.6894 19.7381C56.3047 18.682 57.148 17.8529 58.2176 17.2509C59.2872 16.6489 60.4616 16.3486 61.7425 16.3486C63.0232 16.3486 64.2144 16.6489 65.2674 17.2509C66.3369 17.8529 67.1802 18.682 67.7956 19.7381C68.4276 20.7943 68.7436 21.9739 68.7436 23.2739C68.7436 24.5739 68.4276 25.7778 67.7956 26.834C67.1802 27.8749 66.3369 28.6949 65.2674 29.2969C64.1977 29.8989 63.0232 30.1991 61.7425 30.1991ZM61.7668 27.2729C62.4642 27.2729 63.0871 27.1023 63.6386 26.7609C64.1901 26.4194 64.6185 25.9486 64.927 25.3466C65.2506 24.7293 65.4132 24.0374 65.4132 23.2739C65.4132 22.5103 65.2506 21.8275 64.927 21.2255C64.6185 20.6236 64.1901 20.1526 63.6386 19.8112C63.0871 19.4531 62.455 19.2748 61.7425 19.2748C61.0298 19.2748 60.413 19.4531 59.8463 19.8112C59.2948 20.1526 58.8572 20.6236 58.5336 21.2255C58.2252 21.8275 58.0717 22.5103 58.0717 23.2739C58.0717 24.0374 58.2252 24.7293 58.5336 25.3466C58.8572 25.9486 59.2948 26.4194 59.8463 26.7609C60.413 27.1023 61.0542 27.2729 61.7668 27.2729Z" fill="#272522"/>
<path d="M70.4297 16.6412H73.4198V19.2504L73.1767 18.7871C73.4851 17.99 73.9787 17.3895 74.6596 16.9826C75.3567 16.5605 76.1912 16.3486 77.1637 16.3486C78.1355 16.3486 78.9789 16.5605 79.7402 16.9826C80.5016 17.4048 81.0938 17.9992 81.5147 18.7627C81.9357 19.5263 82.1469 20.3965 82.1469 21.3719V29.9065H78.9626V22.1278C78.9626 21.5593 78.8482 21.0625 78.6222 20.6403C78.3955 20.2014 78.0794 19.8677 77.674 19.6406C77.2686 19.3967 76.8063 19.2748 76.2886 19.2748C75.4941 19.2748 74.8464 19.5354 74.3435 20.0551C73.8576 20.5748 73.6142 21.2667 73.6142 22.1278V29.9065H70.4297V16.6412Z" fill="#272522"/>
<path d="M88.1241 30.1991C87.2003 30.1991 86.3976 30.0452 85.7174 29.7357C85.0366 29.4264 84.5093 28.9874 84.1371 28.419C83.765 27.8338 83.5781 27.1586 83.5781 26.3951C83.5781 25.2734 83.9592 24.3544 84.7205 23.6396C85.4819 22.9081 86.6243 22.4128 88.1485 22.1522L92.4751 21.445V23.8834L88.7562 24.5174C88.1241 24.6317 87.6544 24.8345 87.3458 25.1271C87.0378 25.4197 86.8842 25.8023 86.8842 26.2732C86.8842 26.7441 87.0541 27.0946 87.3945 27.3705C87.7349 27.6311 88.1721 27.7606 88.7075 27.7606C89.3558 27.7606 89.9392 27.622 90.4576 27.3461C90.9753 27.0534 91.3741 26.6557 91.6488 26.1512C91.9405 25.6468 92.0859 25.0951 92.0859 24.4931V21.0792C92.0859 20.5108 91.86 20.0383 91.4058 19.6649C90.9679 19.2748 90.3845 19.0797 89.6557 19.0797C88.9748 19.0797 88.3744 19.258 87.8568 19.6162C87.3384 19.9743 86.9492 20.462 86.6893 21.0792L84.0884 19.8112C84.4776 18.7703 85.1902 17.9337 86.2277 17.2997C87.2653 16.6657 88.4475 16.3486 89.7768 16.3486C90.8468 16.3486 91.7942 16.5514 92.6213 16.9583C93.4646 17.3484 94.1115 17.9017 94.5657 18.6164C95.0354 19.3312 95.2709 20.1526 95.2709 21.0792V29.9065H92.2565V27.6387L92.9374 27.59C92.419 28.451 91.7536 29.1017 90.9435 29.5407C90.149 29.9796 89.2104 30.1991 88.1241 30.1991Z" fill="#272522"/>
<path d="M31.3064 0.492188H7.60457C3.40899 0.492188 0.0078125 3.90386 0.0078125 8.11237V31.8873C0.0078125 36.0959 3.40899 39.5075 7.60457 39.5075H31.3064C35.5019 39.5075 38.9031 36.0959 38.9031 31.8873V8.11237C38.9031 3.90386 35.5019 0.492188 31.3064 0.492188Z" fill="#272522"/>
<path d="M20.2154 16.19H8.82031V11.1606H16.721C18.6505 11.1606 20.2154 12.7304 20.2154 14.6659V16.19Z" fill="white"/>
<path d="M30.2401 18.6557L26.6954 22.2128L20.9219 16.4199C23.6841 15.0543 27.1178 15.5237 29.4151 17.8281L30.2401 18.6557Z" fill="white"/>
<path fill-rule="evenodd" clip-rule="evenodd" d="M20.217 16.8496V28.9916H15.2031V26.4007C15.2031 22.4367 17.1889 18.9375 20.217 16.8496Z" fill="white"/>
</g>
<defs>
<clipPath id="clip0_1_10504">
<rect width="96" height="40" fill="white"/>
</clipPath>
</defs>
</svg>
